<svg width="153" height="49" viewBox="0 0 153 49" fill="none" xmlns="http://www.w3.org/2000/svg">
<path d="M1.5 31V7.72727H18.2727V12.8182H7.81818V16.8182H17.4091V21.9091H7.81818V25.9091H18.2273V31H1.5ZM33.9517 15C33.8911 14.2424 33.607 13.6515 33.0994 13.2273C32.5994 12.803 31.8381 12.5909 30.8153 12.5909C30.1638 12.5909 29.6297 12.6705 29.2131 12.8295C28.804 12.9811 28.5009 13.1894 28.304 13.4545C28.107 13.7197 28.0047 14.0227 27.9972 14.3636C27.982 14.6439 28.0313 14.8977 28.1449 15.125C28.2661 15.3447 28.4555 15.5455 28.7131 15.7273C28.9706 15.9015 29.3002 16.0606 29.7017 16.2045C30.1032 16.3485 30.5805 16.4773 31.1335 16.5909L33.0426 17C34.3305 17.2727 35.4328 17.6326 36.3494 18.0795C37.2661 18.5265 38.0161 19.053 38.5994 19.6591C39.1828 20.2576 39.6108 20.9318 39.8835 21.6818C40.1638 22.4318 40.3078 23.25 40.3153 24.1364C40.3078 25.6667 39.9252 26.9621 39.1676 28.0227C38.41 29.0833 37.3267 29.8902 35.9176 30.4432C34.5161 30.9962 32.8305 31.2727 30.8608 31.2727C28.8381 31.2727 27.0729 30.9735 25.5653 30.375C24.0653 29.7765 22.8987 28.8561 22.0653 27.6136C21.2396 26.3636 20.8229 24.7652 20.8153 22.8182H26.8153C26.8532 23.5303 27.0313 24.1288 27.3494 24.6136C27.6676 25.0985 28.1146 25.4659 28.6903 25.7159C29.2737 25.9659 29.9669 26.0909 30.7699 26.0909C31.4441 26.0909 32.0085 26.0076 32.4631 25.8409C32.9176 25.6742 33.2623 25.4432 33.4972 25.1477C33.732 24.8523 33.8532 24.5152 33.8608 24.1364C33.8532 23.7803 33.7358 23.4697 33.5085 23.2045C33.2888 22.9318 32.9252 22.6894 32.4176 22.4773C31.91 22.2576 31.2244 22.053 30.3608 21.8636L28.0426 21.3636C25.982 20.9167 24.357 20.1705 23.1676 19.125C21.9858 18.072 21.3987 16.6364 21.4062 14.8182C21.3987 13.3409 21.7926 12.0492 22.5881 10.9432C23.3911 9.82954 24.5009 8.96212 25.9176 8.34091C27.3419 7.7197 28.9744 7.40909 30.8153 7.40909C32.6941 7.40909 34.3191 7.72348 35.6903 8.35227C37.0616 8.98106 38.1184 9.86742 38.8608 11.0114C39.6108 12.1477 39.9896 13.4773 39.9972 15H33.9517ZM42.7188 31V7.72727H52.7642C54.4915 7.72727 56.0028 8.06818 57.2983 8.75C58.5938 9.43182 59.6013 10.3902 60.321 11.625C61.0407 12.8598 61.4006 14.303 61.4006 15.9545C61.4006 17.6212 61.0294 19.0644 60.2869 20.2841C59.5521 21.5038 58.518 22.4432 57.1847 23.1023C55.8589 23.7614 54.3097 24.0909 52.5369 24.0909H46.5369V19.1818H51.2642C52.0066 19.1818 52.6392 19.053 53.1619 18.7955C53.6922 18.5303 54.0975 18.1553 54.3778 17.6705C54.6657 17.1856 54.8097 16.6136 54.8097 15.9545C54.8097 15.2879 54.6657 14.7197 54.3778 14.25C54.0975 13.7727 53.6922 13.4091 53.1619 13.1591C52.6392 12.9015 52.0066 12.7727 51.2642 12.7727H49.0369V31H42.7188ZM86.2642 19.3636C86.2642 21.9545 85.7604 24.1402 84.7528 25.9205C83.7453 27.6932 82.3854 29.0379 80.6733 29.9545C78.9612 30.8636 77.0521 31.3182 74.946 31.3182C72.8248 31.3182 70.9081 30.8598 69.196 29.9432C67.4915 29.0189 66.1354 27.6705 65.1278 25.8977C64.1278 24.1174 63.6278 21.9394 63.6278 19.3636C63.6278 16.7727 64.1278 14.5909 65.1278 12.8182C66.1354 11.0379 67.4915 9.69318 69.196 8.78409C70.9081 7.86742 72.8248 7.40909 74.946 7.40909C77.0521 7.40909 78.9612 7.86742 80.6733 8.78409C82.3854 9.69318 83.7453 11.0379 84.7528 12.8182C85.7604 14.5909 86.2642 16.7727 86.2642 19.3636ZM79.7642 19.3636C79.7642 17.9697 79.5786 16.7955 79.2074 15.8409C78.8438 14.8788 78.3021 14.1515 77.5824 13.6591C76.8703 13.1591 75.9915 12.9091 74.946 12.9091C73.9006 12.9091 73.018 13.1591 72.2983 13.6591C71.5862 14.1515 71.0445 14.8788 70.6733 15.8409C70.3097 16.7955 70.1278 17.9697 70.1278 19.3636C70.1278 20.7576 70.3097 21.9356 70.6733 22.8977C71.0445 23.8523 71.5862 24.5795 72.2983 25.0795C73.018 25.572 73.9006 25.8182 74.946 25.8182C75.9915 25.8182 76.8703 25.572 77.5824 25.0795C78.3021 24.5795 78.8438 23.8523 79.2074 22.8977C79.5786 21.9356 79.7642 20.7576 79.7642 19.3636ZM89.1875 31V7.72727H99.233C100.96 7.72727 102.472 8.04167 103.767 8.67045C105.063 9.29924 106.07 10.2045 106.79 11.3864C107.509 12.5682 107.869 13.9848 107.869 15.6364C107.869 17.303 107.498 18.7083 106.756 19.8523C106.021 20.9962 104.987 21.8598 103.653 22.4432C102.328 23.0265 100.778 23.3182 99.0057 23.3182H93.0057V18.4091H97.733C98.4754 18.4091 99.108 18.3182 99.6307 18.1364C100.161 17.947 100.566 17.6477 100.847 17.2386C101.134 16.8295 101.278 16.2955 101.278 15.6364C101.278 14.9697 101.134 14.428 100.847 14.0114C100.566 13.5871 100.161 13.2765 99.6307 13.0795C99.108 12.875 98.4754 12.7727 97.733 12.7727H95.5057V31H89.1875ZM102.824 20.3182L108.642 31H101.778L96.0966 20.3182H102.824ZM109.926 12.8182V7.72727H130.153V12.8182H123.153V31H116.926V12.8182H109.926ZM145.077 15C145.016 14.2424 144.732 13.6515 144.224 13.2273C143.724 12.803 142.963 12.5909 141.94 12.5909C141.289 12.5909 140.755 12.6705 140.338 12.8295C139.929 12.9811 139.626 13.1894 139.429 13.4545C139.232 13.7197 139.13 14.0227 139.122 14.3636C139.107 14.6439 139.156 14.8977 139.27 15.125C139.391 15.3447 139.58 15.5455 139.838 15.7273C140.096 15.9015 140.425 16.0606 140.827 16.2045C141.228 16.3485 141.705 16.4773 142.259 16.5909L144.168 17C145.455 17.2727 146.558 17.6326 147.474 18.0795C148.391 18.5265 149.141 19.053 149.724 19.6591C150.308 20.2576 150.736 20.9318 151.009 21.6818C151.289 22.4318 151.433 23.25 151.44 24.1364C151.433 25.6667 151.05 26.9621 150.293 28.0227C149.535 29.0833 148.452 29.8902 147.043 30.4432C145.641 30.9962 143.955 31.2727 141.986 31.2727C139.963 31.2727 138.198 30.9735 136.69 30.375C135.19 29.7765 134.024 28.8561 133.19 27.6136C132.365 26.3636 131.948 24.7652 131.94 22.8182H137.94C137.978 23.5303 138.156 24.1288 138.474 24.6136C138.793 25.0985 139.24 25.4659 139.815 25.7159C140.399 25.9659 141.092 26.0909 141.895 26.0909C142.569 26.0909 143.134 26.0076 143.588 25.8409C144.043 25.6742 144.387 25.4432 144.622 25.1477C144.857 24.8523 144.978 24.5152 144.986 24.1364C144.978 23.7803 144.861 23.4697 144.634 23.2045C144.414 22.9318 144.05 22.6894 143.543 22.4773C143.035 22.2576 142.349 22.053 141.486 21.8636L139.168 21.3636C137.107 20.9167 135.482 20.1705 134.293 19.125C133.111 18.072 132.524 16.6364 132.531 14.8182C132.524 13.3409 132.918 12.0492 133.713 10.9432C134.516 9.82954 135.626 8.96212 137.043 8.34091C138.467 7.7197 140.099 7.40909 141.94 7.40909C143.819 7.40909 145.444 7.72348 146.815 8.35227C148.187 8.98106 149.243 9.86742 149.986 11.0114C150.736 12.1477 151.115 13.4773 151.122 15H145.077Z" fill="url(#paint0_radial_54_17)"/>
<path d="M6.34807 39.0391L5.5377 39.2678C5.45816 39.0391 5.34547 38.8319 5.19963 38.6463C5.0538 38.4607 4.86322 38.3132 4.6279 38.2038C4.39589 38.0945 4.10754 38.0398 3.76284 38.0398C3.2458 38.0398 2.82156 38.1624 2.49012 38.4077C2.15868 38.6529 1.99296 38.9695 1.99296 39.3572C1.99296 39.6854 2.10565 39.9522 2.33103 40.1577C2.55972 40.3598 2.91104 40.5206 3.385 40.6399L4.53841 40.9233C5.17809 41.0791 5.65702 41.326 5.9752 41.6641C6.2967 42.0021 6.45745 42.4264 6.45745 42.9368C6.45745 43.3677 6.33813 43.7505 6.09949 44.0852C5.86085 44.42 5.52776 44.6835 5.1002 44.8757C4.67596 45.0646 4.18377 45.1591 3.62364 45.1591C2.8779 45.1591 2.26308 44.9917 1.77918 44.657C1.29528 44.3189 0.985381 43.8317 0.849491 43.1953L1.69963 42.9865C1.80901 43.4406 2.02279 43.7836 2.34097 44.0156C2.66246 44.2476 3.08505 44.3636 3.60872 44.3636C4.19537 44.3636 4.66436 44.2327 5.01568 43.9709C5.36701 43.7057 5.54267 43.3743 5.54267 42.9766C5.54267 42.6683 5.43993 42.4098 5.23443 42.201C5.02894 41.9889 4.71739 41.8331 4.29977 41.7337L3.05191 41.4354C2.38903 41.2763 1.8985 41.0244 1.58031 40.6797C1.26213 40.335 1.10304 39.9074 1.10304 39.397C1.10304 38.9761 1.21739 38.6065 1.44608 38.2884C1.67477 37.9669 1.98964 37.715 2.39068 37.5327C2.79173 37.3504 3.24911 37.2592 3.76284 37.2592C4.46218 37.2592 5.02066 37.4183 5.43827 37.7365C5.8592 38.0514 6.16246 38.4856 6.34807 39.0391ZM15.5679 45.174C15.1072 45.174 14.6863 45.0845 14.3052 44.9055C13.924 44.7232 13.6207 44.4614 13.3954 44.12C13.17 43.7753 13.0573 43.3577 13.0573 42.8672C13.0573 42.4893 13.1285 42.1712 13.2711 41.9126C13.4136 41.6541 13.6158 41.442 13.8776 41.2763C14.1394 41.1106 14.4493 40.9796 14.8073 40.8835C15.1652 40.7874 15.5596 40.7128 15.9905 40.6598C16.4181 40.6068 16.7793 40.5604 17.0743 40.5206C17.3726 40.4808 17.5997 40.4179 17.7554 40.3317C17.9112 40.2455 17.9891 40.1063 17.9891 39.9141V39.7351C17.9891 39.2147 17.8333 38.8054 17.5218 38.5071C17.2135 38.2055 16.7694 38.0547 16.1894 38.0547C15.6392 38.0547 15.1901 38.1757 14.8421 38.4176C14.4974 38.6596 14.2554 38.9446 14.1162 39.2727L13.276 38.9695C13.4484 38.5518 13.687 38.2187 13.9919 37.9702C14.2969 37.7183 14.6382 37.5376 15.0161 37.4283C15.3939 37.3156 15.7767 37.2592 16.1645 37.2592C16.4562 37.2592 16.7595 37.2973 17.0743 37.3736C17.3925 37.4498 17.6875 37.5824 17.9593 37.7713C18.2311 37.9569 18.4515 38.2171 18.6205 38.5518C18.7895 38.8833 18.874 39.3042 18.874 39.8146V45H17.9891V43.7919H17.9344C17.8284 44.0173 17.6709 44.236 17.4621 44.4482C17.2533 44.6603 16.9915 44.8343 16.6766 44.9702C16.3617 45.1061 15.9922 45.174 15.5679 45.174ZM15.6873 44.3636C16.1579 44.3636 16.5656 44.2592 16.9103 44.0504C17.255 43.8416 17.5201 43.5649 17.7057 43.2202C17.8946 42.8722 17.9891 42.4893 17.9891 42.0717V40.968C17.9228 41.031 17.8118 41.0874 17.656 41.1371C17.5035 41.1868 17.3262 41.2315 17.124 41.2713C16.9252 41.3078 16.7263 41.3393 16.5275 41.3658C16.3286 41.3923 16.1496 41.4155 15.9905 41.4354C15.5596 41.4884 15.1918 41.5713 14.8868 41.6839C14.5819 41.7966 14.3482 41.9524 14.1858 42.1513C14.0234 42.3468 13.9422 42.5987 13.9422 42.907C13.9422 43.371 14.1079 43.7306 14.4394 43.9858C14.7708 44.2377 15.1868 44.3636 15.6873 44.3636ZM26.2681 45V37.3636H27.1282V38.5369H27.2077C27.3602 38.1425 27.6137 37.8326 27.9684 37.6072C28.3263 37.3786 28.7555 37.2642 29.256 37.2642C29.783 37.2642 30.2155 37.3885 30.5536 37.6371C30.895 37.8823 31.1502 38.2204 31.3192 38.6513H31.3839C31.5562 38.227 31.8363 37.8906 32.2241 37.642C32.6152 37.3902 33.0891 37.2642 33.6459 37.2642C34.3552 37.2642 34.9153 37.4879 35.3263 37.9354C35.7373 38.3795 35.9428 39.0291 35.9428 39.8842V45H35.0579V39.8842C35.0579 39.281 34.9037 38.8286 34.5955 38.527C34.2873 38.2254 33.8813 38.0746 33.3775 38.0746C32.7941 38.0746 32.345 38.2536 32.0302 38.6115C31.7153 38.9695 31.5579 39.4235 31.5579 39.9737V45H30.653V39.8047C30.653 39.2876 30.5089 38.87 30.2205 38.5518C29.9322 38.2337 29.5261 38.0746 29.0025 38.0746C28.6511 38.0746 28.3346 38.1607 28.0529 38.3331C27.7745 38.5054 27.5541 38.7457 27.3917 39.054C27.2326 39.3589 27.153 39.7102 27.153 40.108V45H26.2681ZM45.4585 45.174C44.9978 45.174 44.5769 45.0845 44.1957 44.9055C43.8145 44.7232 43.5113 44.4614 43.2859 44.12C43.0605 43.7753 42.9478 43.3577 42.9478 42.8672C42.9478 42.4893 43.0191 42.1712 43.1616 41.9126C43.3041 41.6541 43.5063 41.442 43.7681 41.2763C44.03 41.1106 44.3399 40.9796 44.6978 40.8835C45.0558 40.7874 45.4502 40.7128 45.8811 40.6598C46.3086 40.6068 46.6699 40.5604 46.9649 40.5206C47.2632 40.4808 47.4902 40.4179 47.646 40.3317C47.8018 40.2455 47.8796 40.1063 47.8796 39.9141V39.7351C47.8796 39.2147 47.7239 38.8054 47.4123 38.5071C47.1041 38.2055 46.6599 38.0547 46.0799 38.0547C45.5297 38.0547 45.0806 38.1757 44.7326 38.4176C44.3879 38.6596 44.146 38.9446 44.0068 39.2727L43.1666 38.9695C43.3389 38.5518 43.5776 38.2187 43.8825 37.9702C44.1874 37.7183 44.5288 37.5376 44.9066 37.4283C45.2845 37.3156 45.6673 37.2592 46.0551 37.2592C46.3467 37.2592 46.65 37.2973 46.9649 37.3736C47.2831 37.4498 47.578 37.5824 47.8498 37.7713C48.1216 37.9569 48.342 38.2171 48.511 38.5518C48.6801 38.8833 48.7646 39.3042 48.7646 39.8146V45H47.8796V43.7919H47.825C47.7189 44.0173 47.5615 44.236 47.3527 44.4482C47.1439 44.6603 46.882 44.8343 46.5671 44.9702C46.2523 45.1061 45.8827 45.174 45.4585 45.174ZM45.5778 44.3636C46.0484 44.3636 46.4561 44.2592 46.8008 44.0504C47.1455 43.8416 47.4107 43.5649 47.5963 43.2202C47.7852 42.8722 47.8796 42.4893 47.8796 42.0717V40.968C47.8134 41.031 47.7023 41.0874 47.5465 41.1371C47.3941 41.1868 47.2168 41.2315 47.0146 41.2713C46.8157 41.3078 46.6169 41.3393 46.418 41.3658C46.2191 41.3923 46.0402 41.4155 45.8811 41.4354C45.4502 41.4884 45.0823 41.5713 44.7774 41.6839C44.4724 41.7966 44.2388 41.9524 44.0764 42.1513C43.914 42.3468 43.8328 42.5987 43.8328 42.907C43.8328 43.371 43.9985 43.7306 44.3299 43.9858C44.6614 44.2377 45.0773 44.3636 45.5778 44.3636ZM56.1586 45V37.3636H57.0187V38.5369H57.0834C57.2358 38.1525 57.501 37.8426 57.8788 37.6072C58.26 37.3686 58.6908 37.2493 59.1714 37.2493C59.2443 37.2493 59.3255 37.2509 59.415 37.2543C59.5045 37.2576 59.5791 37.2609 59.6388 37.2642V38.1641C59.599 38.1574 59.5294 38.1475 59.4299 38.1342C59.3305 38.121 59.2228 38.1143 59.1068 38.1143C58.7091 38.1143 58.3544 38.1989 58.0429 38.3679C57.7346 38.5336 57.491 38.764 57.312 39.0589C57.1331 39.3539 57.0436 39.6903 57.0436 40.0682V45H56.1586ZM68.3217 45.174C67.861 45.174 67.4401 45.0845 67.0589 44.9055C66.6777 44.7232 66.3745 44.4614 66.1491 44.12C65.9237 43.7753 65.811 43.3577 65.811 42.8672C65.811 42.4893 65.8823 42.1712 66.0248 41.9126C66.1673 41.6541 66.3695 41.442 66.6313 41.2763C66.8932 41.1106 67.2031 40.9796 67.561 40.8835C67.919 40.7874 68.3134 40.7128 68.7443 40.6598C69.1718 40.6068 69.5331 40.5604 69.8281 40.5206C70.1264 40.4808 70.3534 40.4179 70.5092 40.3317C70.665 40.2455 70.7428 40.1063 70.7428 39.9141V39.7351C70.7428 39.2147 70.5871 38.8054 70.2755 38.5071C69.9673 38.2055 69.5232 38.0547 68.9431 38.0547C68.3929 38.0547 67.9438 38.1757 67.5958 38.4176C67.2511 38.6596 67.0092 38.9446 66.87 39.2727L66.0298 38.9695C66.2021 38.5518 66.4408 38.2187 66.7457 37.9702C67.0506 37.7183 67.392 37.5376 67.7698 37.4283C68.1477 37.3156 68.5305 37.2592 68.9183 37.2592C69.2099 37.2592 69.5132 37.2973 69.8281 37.3736C70.1463 37.4498 70.4412 37.5824 70.713 37.7713C70.9848 37.9569 71.2052 38.2171 71.3742 38.5518C71.5433 38.8833 71.6278 39.3042 71.6278 39.8146V45H70.7428V43.7919H70.6882C70.5821 44.0173 70.4247 44.236 70.2159 44.4482C70.0071 44.6603 69.7452 44.8343 69.4303 44.9702C69.1155 45.1061 68.7459 45.174 68.3217 45.174ZM68.441 44.3636C68.9116 44.3636 69.3193 44.2592 69.664 44.0504C70.0087 43.8416 70.2739 43.5649 70.4595 43.2202C70.6484 42.8722 70.7428 42.4893 70.7428 42.0717V40.968C70.6766 41.031 70.5655 41.0874 70.4098 41.1371C70.2573 41.1868 70.08 41.2315 69.8778 41.2713C69.6789 41.3078 69.4801 41.3393 69.2812 41.3658C69.0823 41.3923 68.9034 41.4155 68.7443 41.4354C68.3134 41.4884 67.9455 41.5713 67.6406 41.6839C67.3357 41.7966 67.102 41.9524 66.9396 42.1513C66.7772 42.3468 66.696 42.5987 66.696 42.907C66.696 43.371 66.8617 43.7306 67.1931 43.9858C67.5246 44.2377 67.9405 44.3636 68.441 44.3636ZM87.9993 45V37.3636H88.8594V38.5369H88.9241C89.0765 38.1525 89.3417 37.8426 89.7195 37.6072C90.1007 37.3686 90.5315 37.2493 91.0121 37.2493C91.085 37.2493 91.1662 37.2509 91.2557 37.2543C91.3452 37.2576 91.4198 37.2609 91.4795 37.2642V38.1641C91.4397 38.1574 91.3701 38.1475 91.2706 38.1342C91.1712 38.121 91.0635 38.1143 90.9475 38.1143C90.5498 38.1143 90.1951 38.1989 89.8836 38.3679C89.5753 38.5336 89.3317 38.764 89.1527 39.0589C88.9738 39.3539 88.8843 39.6903 88.8843 40.0682V45H87.9993ZM100.885 45.1591C100.172 45.1591 99.5554 44.9934 99.0351 44.6619C98.5147 44.3272 98.112 43.8648 97.827 43.2749C97.5453 42.6816 97.4044 41.9988 97.4044 41.2266C97.4044 40.4576 97.5453 39.7749 97.827 39.1783C98.112 38.5784 98.5048 38.1094 99.0053 37.7713C99.509 37.4299 100.091 37.2592 100.75 37.2592C101.165 37.2592 101.564 37.3355 101.948 37.4879C102.333 37.6371 102.678 37.8674 102.983 38.179C103.291 38.4872 103.534 38.8767 103.713 39.3473C103.892 39.8146 103.982 40.3681 103.982 41.0078V41.4453H98.0159V40.6648H103.077C103.077 40.1742 102.978 39.7334 102.779 39.3423C102.583 38.9479 102.31 38.6364 101.958 38.4077C101.61 38.179 101.208 38.0646 100.75 38.0646C100.266 38.0646 99.8405 38.1939 99.4726 38.4524C99.1047 38.7109 98.8163 39.0523 98.6075 39.4766C98.402 39.9008 98.2976 40.3648 98.2943 40.8686V41.3359C98.2943 41.9425 98.3987 42.4728 98.6075 42.9268C98.8196 43.3776 99.1196 43.7273 99.5074 43.9759C99.8952 44.2244 100.354 44.3487 100.885 44.3487C101.246 44.3487 101.562 44.2924 101.834 44.1797C102.109 44.067 102.34 43.9162 102.525 43.7273C102.714 43.535 102.857 43.3246 102.953 43.0959L103.793 43.3693C103.677 43.6908 103.486 43.9875 103.221 44.2592C102.959 44.531 102.631 44.7498 102.237 44.9155C101.846 45.0779 101.395 45.1591 100.885 45.1591ZM113.885 48.0227C113.365 48.0227 112.909 47.9548 112.518 47.8189C112.127 47.6863 111.797 47.504 111.529 47.272C111.26 47.04 111.051 46.7798 110.902 46.4915L111.628 46.0142C111.738 46.2064 111.883 46.3954 112.066 46.581C112.251 46.7666 112.492 46.9207 112.787 47.0433C113.085 47.166 113.451 47.2273 113.885 47.2273C114.561 47.2273 115.107 47.0582 115.521 46.7202C115.939 46.3821 116.147 45.8568 116.147 45.1442V43.424H116.068C115.965 43.656 115.818 43.888 115.625 44.12C115.433 44.3487 115.181 44.5393 114.87 44.6918C114.561 44.8442 114.179 44.9205 113.721 44.9205C113.111 44.9205 112.569 44.7696 112.095 44.468C111.625 44.1664 111.254 43.7356 110.982 43.1754C110.713 42.612 110.579 41.9408 110.579 41.1619C110.579 40.3897 110.71 39.7102 110.972 39.1236C111.237 38.5369 111.607 38.0795 112.081 37.7514C112.555 37.4233 113.106 37.2592 113.736 37.2592C114.203 37.2592 114.591 37.3421 114.899 37.5078C115.208 37.6702 115.455 37.8724 115.64 38.1143C115.829 38.3563 115.977 38.5916 116.083 38.8203H116.172V37.3636H117.037V45.1989C117.037 45.8452 116.9 46.3771 116.625 46.7947C116.35 47.2124 115.975 47.5206 115.501 47.7195C115.027 47.9216 114.488 48.0227 113.885 48.0227ZM113.826 44.1101C114.316 44.1101 114.735 43.9924 115.083 43.7571C115.431 43.5185 115.698 43.1771 115.884 42.733C116.069 42.2888 116.162 41.7602 116.162 41.147C116.162 40.5504 116.071 40.0218 115.889 39.5611C115.707 39.0971 115.441 38.7325 115.093 38.4673C114.749 38.1989 114.326 38.0646 113.826 38.0646C113.315 38.0646 112.884 38.2022 112.533 38.4773C112.182 38.7524 111.917 39.1236 111.738 39.5909C111.559 40.0549 111.469 40.5736 111.469 41.147C111.469 41.7304 111.56 42.2457 111.743 42.6932C111.925 43.1373 112.192 43.4853 112.543 43.7372C112.894 43.9858 113.322 44.1101 113.826 44.1101ZM124.43 45V37.3636H125.32V45H124.43ZM124.882 36.0511C124.7 36.0511 124.544 35.9898 124.415 35.8672C124.286 35.7412 124.221 35.5904 124.221 35.4148C124.221 35.2391 124.286 35.09 124.415 34.9673C124.544 34.8414 124.7 34.7784 124.882 34.7784C125.065 34.7784 125.221 34.8414 125.35 34.9673C125.479 35.09 125.544 35.2391 125.544 35.4148C125.544 35.5904 125.479 35.7412 125.35 35.8672C125.221 35.9898 125.065 36.0511 124.882 36.0511ZM135.668 45.1591C135.009 45.1591 134.426 44.9917 133.918 44.657C133.415 44.3222 133.02 43.8598 132.735 43.2699C132.45 42.6766 132.308 41.9922 132.308 41.2166C132.308 40.4344 132.45 39.7467 132.735 39.1534C133.02 38.5568 133.415 38.0928 133.918 37.7614C134.426 37.4266 135.009 37.2592 135.668 37.2592C136.328 37.2592 136.91 37.4266 137.413 37.7614C137.917 38.0961 138.312 38.5601 138.597 39.1534C138.885 39.7467 139.029 40.4344 139.029 41.2166C139.029 41.9922 138.887 42.6766 138.602 43.2699C138.317 43.8598 137.921 44.3222 137.413 44.657C136.91 44.9917 136.328 45.1591 135.668 45.1591ZM135.668 44.3487C136.199 44.3487 136.648 44.2062 137.016 43.9212C137.384 43.6361 137.662 43.2566 137.851 42.7827C138.043 42.3087 138.139 41.7867 138.139 41.2166C138.139 40.6465 138.043 40.1229 137.851 39.6456C137.662 39.1683 137.384 38.7855 137.016 38.4972C136.648 38.2088 136.199 38.0646 135.668 38.0646C135.141 38.0646 134.692 38.2088 134.321 38.4972C133.953 38.7855 133.673 39.1683 133.481 39.6456C133.292 40.1229 133.198 40.6465 133.198 41.2166C133.198 41.7867 133.292 42.3087 133.481 42.7827C133.673 43.2566 133.953 43.6361 134.321 43.9212C134.689 44.2062 135.138 44.3487 135.668 44.3487ZM146.897 40.2273V45H146.012V37.3636H146.872V38.5618H146.951C147.13 38.1707 147.409 37.8575 147.787 37.6222C148.168 37.3835 148.638 37.2642 149.199 37.2642C149.712 37.2642 150.163 37.3719 150.551 37.5874C150.942 37.7995 151.245 38.1127 151.461 38.527C151.679 38.9413 151.789 39.45 151.789 40.0533V45H150.904V40.108C150.904 39.4815 150.728 38.986 150.377 38.6214C150.029 38.2569 149.562 38.0746 148.975 38.0746C148.574 38.0746 148.218 38.1607 147.906 38.3331C147.594 38.5054 147.348 38.754 147.165 39.0788C146.986 39.4003 146.897 39.7831 146.897 40.2273Z" fill="white"/>
<defs>
<radialGradient id="paint0_radial_54_17" cx="0" cy="0" r="1" gradientUnits="userSpaceOnUse" gradientTransform="translate(76.5 19.5) rotate(90) scale(19.5 76.5)">
<stop offset="0.5" stop-color="#8973FF"/>
<stop offset="1" stop-color="#66CCFF"/>
</radialGradient>
</defs>
</svg>
