<svg width="1094" height="229" viewBox="0 0 1094 229" fill="none" xmlns="http://www.w3.org/2000/svg">
<path d="M101.254 146.652L67.8026 102.546H63.6477V146.652H34.0312V37.5607H63.6477V78.6829H67.483L98.804 37.5607H136.091L94.5426 89.9755L138.435 146.652H101.254ZM146.385 37.5607H176.001V94.663H176.854L215.632 37.5607H240.774V146.652H211.157V89.3363H210.518L171.101 146.652H146.385V37.5607ZM254.783 146.652V37.5607H331.488V61.4243H284.4V74.2084H295.479C304.641 74.2084 312.649 75.6821 319.503 78.6296C326.392 81.577 331.736 85.7319 335.536 91.0941C339.371 96.4563 341.289 102.76 341.289 110.004C341.289 117.248 339.371 123.622 335.536 129.127C331.736 134.631 326.392 138.928 319.503 142.017C312.649 145.107 304.641 146.652 295.479 146.652H254.783ZM284.4 123.427H295.479C299.03 123.427 302.013 122.841 304.428 121.669C306.878 120.497 308.725 118.882 309.968 116.822C311.246 114.762 311.885 112.419 311.885 109.791C311.885 106.062 310.483 102.973 307.677 100.522C304.872 98.0366 300.806 96.7937 295.479 96.7937H284.4V123.427ZM351.756 146.652V37.5607H430.378V61.4243H381.372V80.1743H426.33V104.038H381.372V122.788H430.165V146.652H351.756ZM445.066 146.652V37.5607H492.154C500.251 37.5607 507.336 39.1587 513.408 42.3547C519.48 45.5508 524.203 50.0429 527.577 55.8313C530.951 61.6196 532.637 68.3846 532.637 76.126C532.637 83.9385 530.897 90.7035 527.417 96.4208C523.973 102.138 519.125 106.542 512.875 109.631C506.661 112.721 499.399 114.265 491.089 114.265H462.964V91.2539H485.123C488.603 91.2539 491.569 90.6502 494.019 89.4428C496.505 88.1999 498.404 86.4421 499.718 84.1694C501.068 81.8966 501.743 79.2155 501.743 76.126C501.743 73.001 501.068 70.3377 499.718 68.136C498.404 65.8988 496.505 64.1942 494.019 63.0223C491.569 61.815 488.603 61.2113 485.123 61.2113H474.683V146.652H445.066ZM645.351 78.4698H615.308C615.095 75.984 614.527 73.729 613.603 71.7049C612.716 69.6807 611.473 67.9407 609.875 66.4847C608.312 64.9932 606.412 63.8569 604.175 63.0756C601.938 62.2589 599.399 61.8505 596.558 61.8505C591.586 61.8505 587.378 63.0579 583.934 65.4726C580.525 67.8874 577.932 71.3498 576.157 75.8597C574.417 80.3697 573.547 85.7851 573.547 92.1062C573.547 98.7823 574.434 104.375 576.21 108.885C578.021 113.36 580.631 116.733 584.04 119.006C587.449 121.243 591.551 122.362 596.345 122.362C599.079 122.362 601.529 122.024 603.696 121.35C605.862 120.64 607.744 119.627 609.342 118.314C610.94 117 612.236 115.419 613.23 113.573C614.26 111.691 614.953 109.578 615.308 107.234L645.351 107.447C644.995 112.064 643.699 116.769 641.462 121.563C639.225 126.321 636.047 130.725 631.927 134.773C627.843 138.786 622.783 142.017 616.746 144.468C610.709 146.918 603.696 148.143 595.706 148.143C585.691 148.143 576.707 145.995 568.752 141.698C560.833 137.401 554.566 131.08 549.949 122.735C545.368 114.39 543.078 104.18 543.078 92.1062C543.078 79.9613 545.422 69.734 550.109 61.4243C554.797 53.0792 561.118 46.7759 569.072 42.5145C577.027 38.2177 585.904 36.0692 595.706 36.0692C602.595 36.0692 608.934 37.0103 614.722 38.8924C620.51 40.7745 625.588 43.5266 629.956 47.1488C634.324 50.7354 637.84 55.1566 640.503 60.4123C643.167 65.6679 644.782 71.6871 645.351 78.4698ZM758.929 37.5607V146.652H729.739V60.9982H692.878V146.652H663.688V37.5607H758.929ZM883.561 92.1062C883.561 104.251 881.199 114.496 876.476 122.841C871.753 131.151 865.379 137.454 857.353 141.751C849.328 146.012 840.379 148.143 830.507 148.143C820.564 148.143 811.579 145.995 803.554 141.698C795.564 137.365 789.207 131.044 784.484 122.735C779.797 114.39 777.453 104.18 777.453 92.1062C777.453 79.9613 779.797 69.734 784.484 61.4243C789.207 53.0792 795.564 46.7759 803.554 42.5145C811.579 38.2177 820.564 36.0692 830.507 36.0692C840.379 36.0692 849.328 38.2177 857.353 42.5145C865.379 46.7759 871.753 53.0792 876.476 61.4243C881.199 69.734 883.561 79.9613 883.561 92.1062ZM853.092 92.1062C853.092 85.5721 852.222 80.0678 850.482 75.5934C848.777 71.0834 846.238 67.6743 842.865 65.3661C839.527 63.0223 835.407 61.8505 830.507 61.8505C825.606 61.8505 821.469 63.0223 818.096 65.3661C814.757 67.6743 812.218 71.0834 810.478 75.5934C808.774 80.0678 807.922 85.5721 807.922 92.1062C807.922 98.6402 808.774 104.162 810.478 108.672C812.218 113.147 814.757 116.556 818.096 118.899C821.469 121.208 825.606 122.362 830.507 122.362C835.407 122.362 839.527 121.208 842.865 118.899C846.238 116.556 848.777 113.147 850.482 108.672C852.222 104.162 853.092 98.6402 853.092 92.1062ZM897.264 146.652V37.5607H944.352C952.448 37.5607 959.533 39.1587 965.605 42.3547C971.678 45.5508 976.401 50.0429 979.774 55.8313C983.148 61.6196 984.835 68.3846 984.835 76.126C984.835 83.9385 983.095 90.7035 979.615 96.4208C976.17 102.138 971.323 106.542 965.073 109.631C958.858 112.721 951.596 114.265 943.286 114.265H915.161V91.2539H937.32C940.801 91.2539 943.766 90.6502 946.216 89.4428C948.702 88.1999 950.602 86.4421 951.916 84.1694C953.265 81.8966 953.94 79.2155 953.94 76.126C953.94 73.001 953.265 70.3377 951.916 68.136C950.602 65.8988 948.702 64.1942 946.216 63.0223C943.766 61.815 940.801 61.2113 937.32 61.2113H926.88V146.652H897.264ZM992.718 61.4243V37.5607H1087.53V61.4243H1054.72V146.652H1025.53V61.4243H992.718Z" fill="url(#paint0_radial_154_56)"/>
<path d="M32.5763 211V170.091H48.6895C53.0397 170.091 56.4665 171.032 58.9701 172.914C61.4914 174.796 62.752 177.335 62.752 180.531C62.752 182.964 62.0507 184.908 60.648 186.364C59.2453 187.82 57.3632 188.85 55.0017 189.453C56.5819 189.72 58.0468 190.297 59.3962 191.185C60.7634 192.072 61.8731 193.244 62.7254 194.7C63.5777 196.156 64.0038 197.896 64.0038 199.92C64.0038 202.051 63.4711 203.951 62.4058 205.62C61.3405 207.289 59.8401 208.603 57.9047 209.562C55.9694 210.521 53.6789 211 51.0333 211H32.5763ZM37.104 206.605H51.0333C53.5368 206.605 55.5166 205.966 56.9726 204.688C58.4285 203.392 59.1565 201.669 59.1565 199.521C59.1565 197.23 58.464 195.402 57.0791 194.034C55.7119 192.65 53.8742 191.957 51.566 191.957H37.104V206.605ZM37.104 187.749H48.9825C50.8291 187.749 52.4271 187.465 53.7765 186.897C55.126 186.328 56.1647 185.529 56.8927 184.5C57.6384 183.452 58.0024 182.227 57.9846 180.824C57.9846 178.818 57.1679 177.264 55.5344 176.163C53.9008 175.045 51.6192 174.485 48.6895 174.485H37.104V187.749ZM163.971 211.852C160.314 211.852 157.127 210.938 154.41 209.109C151.711 207.28 149.616 204.777 148.124 201.598C146.633 198.42 145.887 194.798 145.887 190.732C145.887 186.63 146.642 182.982 148.151 179.786C149.678 176.589 151.791 174.086 154.49 172.275C157.189 170.446 160.323 169.532 163.892 169.532C166.626 169.532 169.103 170.064 171.322 171.13C173.542 172.177 175.371 173.66 176.809 175.577C178.265 177.477 179.179 179.697 179.552 182.236H174.758C174.261 179.928 173.062 177.957 171.162 176.323C169.28 174.672 166.883 173.846 163.971 173.846C161.361 173.846 159.053 174.556 157.047 175.977C155.04 177.38 153.469 179.342 152.333 181.863C151.214 184.366 150.655 187.27 150.655 190.572C150.655 193.892 151.205 196.831 152.306 199.388C153.407 201.927 154.952 203.915 156.94 205.354C158.947 206.792 161.29 207.511 163.971 207.511C165.782 207.511 167.434 207.174 168.925 206.499C170.434 205.806 171.695 204.83 172.707 203.569C173.737 202.309 174.43 200.808 174.785 199.068H179.579C179.224 201.536 178.345 203.738 176.942 205.673C175.557 207.591 173.755 209.1 171.535 210.201C169.334 211.302 166.812 211.852 163.971 211.852ZM232.529 211.852C228.711 211.852 225.409 210.964 222.621 209.189C219.833 207.396 217.676 204.919 216.149 201.758C214.64 198.58 213.885 194.922 213.885 190.785C213.885 186.666 214.64 183.008 216.149 179.812C217.676 176.598 219.78 174.086 222.461 172.275C225.16 170.446 228.276 169.532 231.81 169.532C234.029 169.532 236.169 169.94 238.228 170.757C240.288 171.556 242.135 172.79 243.768 174.459C245.419 176.11 246.724 178.196 247.683 180.718C248.642 183.221 249.121 186.186 249.121 189.613V191.957H217.161V187.776H244.274C244.274 185.148 243.741 182.786 242.676 180.691C241.629 178.578 240.164 176.909 238.282 175.684C236.417 174.459 234.26 173.846 231.81 173.846C229.217 173.846 226.936 174.539 224.965 175.924C222.994 177.309 221.449 179.137 220.331 181.41C219.23 183.683 218.67 186.169 218.653 188.868V191.371C218.653 194.62 219.212 197.461 220.331 199.894C221.467 202.309 223.074 204.182 225.151 205.513C227.229 206.845 229.688 207.511 232.529 207.511C234.464 207.511 236.16 207.209 237.616 206.605C239.089 206.002 240.324 205.194 241.318 204.182C242.33 203.152 243.093 202.025 243.608 200.799L248.109 202.264C247.488 203.987 246.467 205.576 245.047 207.032C243.644 208.488 241.886 209.659 239.773 210.547C237.678 211.417 235.263 211.852 232.529 211.852ZM285.818 226.341V170.091H290.426V177.895H290.985C291.554 176.669 292.335 175.418 293.329 174.139C294.323 172.843 295.637 171.751 297.271 170.863C298.922 169.975 301 169.532 303.503 169.532C306.877 169.532 309.824 170.419 312.345 172.195C314.885 173.953 316.855 176.421 318.258 179.599C319.679 182.76 320.389 186.444 320.389 190.652C320.389 194.878 319.679 198.58 318.258 201.758C316.855 204.936 314.885 207.413 312.345 209.189C309.824 210.964 306.894 211.852 303.556 211.852C301.088 211.852 299.02 211.408 297.351 210.521C295.699 209.633 294.359 208.541 293.329 207.245C292.317 205.931 291.536 204.652 290.985 203.409H290.559V226.341H285.818ZM290.506 190.572C290.506 193.875 290.994 196.804 291.971 199.361C292.965 201.9 294.386 203.898 296.232 205.354C298.097 206.792 300.351 207.511 302.997 207.511C305.714 207.511 308.004 206.765 309.869 205.274C311.751 203.765 313.18 201.732 314.157 199.175C315.151 196.618 315.648 193.75 315.648 190.572C315.648 187.429 315.16 184.597 314.183 182.076C313.224 179.555 311.804 177.557 309.922 176.083C308.04 174.592 305.731 173.846 302.997 173.846C300.334 173.846 298.07 174.565 296.206 176.004C294.341 177.424 292.921 179.395 291.944 181.916C290.985 184.42 290.506 187.305 290.506 190.572ZM352.192 222.639V206.526H355.734C356.622 205.531 357.394 204.457 358.051 203.303C358.708 202.149 359.276 200.835 359.756 199.361C360.253 197.87 360.67 196.138 361.008 194.168C361.345 192.179 361.629 189.862 361.86 187.216L363.351 170.091H387.561V206.526H393.634V222.639H388.893V211H356.959V222.639H352.192ZM361.194 206.526H382.82V174.565H367.772L366.547 187.216C366.121 191.513 365.517 195.26 364.736 198.456C363.955 201.652 362.774 204.342 361.194 206.526ZM459.947 170.091V206.499H464.288V224.237H459.548V211H428.972V170.091H433.74V206.526H455.18V170.091H459.947ZM516.752 211.852C512.935 211.852 509.632 210.964 506.845 209.189C504.057 207.396 501.9 204.919 500.373 201.758C498.864 198.58 498.109 194.922 498.109 190.785C498.109 186.666 498.864 183.008 500.373 179.812C501.9 176.598 504.004 174.086 506.685 172.275C509.384 170.446 512.5 169.532 516.033 169.532C518.253 169.532 520.392 169.94 522.452 170.757C524.512 171.556 526.358 172.79 527.992 174.459C529.643 176.11 530.948 178.196 531.907 180.718C532.866 183.221 533.345 186.186 533.345 189.613V191.957H501.385V187.776H528.498C528.498 185.148 527.965 182.786 526.9 180.691C525.852 178.578 524.387 176.909 522.505 175.684C520.641 174.459 518.484 173.846 516.033 173.846C513.441 173.846 511.159 174.539 509.188 175.924C507.218 177.309 505.673 179.137 504.554 181.41C503.453 183.683 502.894 186.169 502.876 188.868V191.371C502.876 194.62 503.436 197.461 504.554 199.894C505.691 202.309 507.297 204.182 509.375 205.513C511.452 206.845 513.911 207.511 516.752 207.511C518.688 207.511 520.383 207.209 521.839 206.605C523.313 206.002 524.547 205.194 525.541 204.182C526.554 203.152 527.317 202.025 527.832 200.799L532.333 202.264C531.712 203.987 530.691 205.576 529.27 207.032C527.867 208.488 526.11 209.659 523.997 210.547C521.902 211.417 519.487 211.852 516.752 211.852ZM618.371 211V156.455H635.976C639.847 156.455 643.078 157.2 645.671 158.692C648.281 160.165 650.243 162.172 651.557 164.711C652.888 167.25 653.554 170.109 653.554 173.287C653.554 176.465 652.897 179.333 651.583 181.89C650.269 184.429 648.316 186.444 645.724 187.935C643.132 189.409 639.909 190.146 636.056 190.146H622.206V185.672H635.923C638.781 185.672 641.152 185.139 643.034 184.074C644.916 182.99 646.319 181.517 647.242 179.652C648.183 177.788 648.654 175.666 648.654 173.287C648.654 170.908 648.183 168.786 647.242 166.922C646.319 165.057 644.907 163.592 643.007 162.527C641.125 161.462 638.737 160.929 635.843 160.929H623.352V211H618.371ZM705.972 211.852C702.438 211.852 699.313 210.956 696.597 209.162C693.898 207.369 691.785 204.892 690.258 201.732C688.731 198.553 687.967 194.887 687.967 190.732C687.967 186.542 688.731 182.857 690.258 179.679C691.785 176.483 693.898 173.997 696.597 172.222C699.313 170.428 702.438 169.532 705.972 169.532C709.505 169.532 712.621 170.428 715.32 172.222C718.019 174.015 720.132 176.501 721.659 179.679C723.203 182.857 723.976 186.542 723.976 190.732C723.976 194.887 723.212 198.553 721.685 201.732C720.158 204.892 718.037 207.369 715.32 209.162C712.621 210.956 709.505 211.852 705.972 211.852ZM705.972 207.511C708.813 207.511 711.218 206.748 713.189 205.221C715.16 203.694 716.652 201.661 717.664 199.121C718.694 196.582 719.208 193.786 719.208 190.732C719.208 187.678 718.694 184.873 717.664 182.316C716.652 179.759 715.16 177.708 713.189 176.163C711.218 174.619 708.813 173.846 705.972 173.846C703.148 173.846 700.743 174.619 698.754 176.163C696.783 177.708 695.283 179.759 694.253 182.316C693.241 184.873 692.735 187.678 692.735 190.732C692.735 193.786 693.241 196.582 694.253 199.121C695.283 201.661 696.783 203.694 698.754 205.221C700.725 206.748 703.131 207.511 705.972 207.511ZM776.613 211.852C772.955 211.852 769.768 210.938 767.052 209.109C764.353 207.28 762.258 204.777 760.766 201.598C759.275 198.42 758.529 194.798 758.529 190.732C758.529 186.63 759.283 182.982 760.793 179.786C762.32 176.589 764.433 174.086 767.131 172.275C769.83 170.446 772.964 169.532 776.533 169.532C779.267 169.532 781.744 170.064 783.964 171.13C786.183 172.177 788.012 173.66 789.45 175.577C790.906 177.477 791.821 179.697 792.194 182.236H787.4C786.902 179.928 785.704 177.957 783.804 176.323C781.922 174.672 779.525 173.846 776.613 173.846C774.003 173.846 771.695 174.556 769.688 175.977C767.682 177.38 766.111 179.342 764.974 181.863C763.856 184.366 763.296 187.27 763.296 190.572C763.296 193.892 763.847 196.831 764.948 199.388C766.048 201.927 767.593 203.915 769.582 205.354C771.588 206.792 773.932 207.511 776.613 207.511C778.424 207.511 780.075 207.174 781.567 206.499C783.076 205.806 784.337 204.83 785.349 203.569C786.379 202.309 787.071 200.808 787.426 199.068H792.22C791.865 201.536 790.986 203.738 789.584 205.673C788.199 207.591 786.396 209.1 784.177 210.201C781.975 211.302 779.454 211.852 776.613 211.852ZM844.611 211.852C840.953 211.852 837.766 210.938 835.05 209.109C832.351 207.28 830.256 204.777 828.764 201.598C827.273 198.42 826.527 194.798 826.527 190.732C826.527 186.63 827.282 182.982 828.791 179.786C830.318 176.589 832.431 174.086 835.13 172.275C837.828 170.446 840.962 169.532 844.531 169.532C847.266 169.532 849.742 170.064 851.962 171.13C854.181 172.177 856.01 173.66 857.448 175.577C858.904 177.477 859.819 179.697 860.192 182.236H855.398C854.9 179.928 853.702 177.957 851.802 176.323C849.92 174.672 847.523 173.846 844.611 173.846C842.001 173.846 839.693 174.556 837.686 175.977C835.68 177.38 834.109 179.342 832.972 181.863C831.854 184.366 831.294 187.27 831.294 190.572C831.294 193.892 831.845 196.831 832.946 199.388C834.046 201.927 835.591 203.915 837.58 205.354C839.586 206.792 841.93 207.511 844.611 207.511C846.422 207.511 848.073 207.174 849.565 206.499C851.074 205.806 852.335 204.83 853.347 203.569C854.377 202.309 855.069 200.808 855.424 199.068H860.218C859.863 201.536 858.984 203.738 857.582 205.673C856.197 207.591 854.394 209.1 852.175 210.201C849.973 211.302 847.452 211.852 844.611 211.852ZM901.37 204.262L922.97 170.091H928.642V211H923.902V176.829L902.382 211H896.629V170.091H901.37V204.262ZM972.151 204.262L993.751 170.091H999.424V211H994.683V176.829L973.163 211H967.41V170.091H972.151V204.262Z" fill="white"/>
<defs>
<radialGradient id="paint0_radial_154_56" cx="0" cy="0" r="1" gradientUnits="userSpaceOnUse" gradientTransform="translate(560.5 91.6516) rotate(90) scale(91 533.5)">
<stop offset="0.5" stop-color="#8973FF"/>
<stop offset="1" stop-color="#66CCFF"/>
</radialGradient>
</defs>
</svg>
